<?xml version="1.0" standalone="no"?><!DOCTYPE svg PUBLIC "-//W3C//DTD SVG 1.1//EN" "http://www.w3.org/Graphics/SVG/1.1/DTD/svg11.dtd"><svg class="icon" width="200px" height="200.00px" viewBox="0 0 1024 1024" version="1.1" xmlns="http://www.w3.org/2000/svg"><path d="M512 913.066667c-98.679467 0-183.995733-35.259733-253.559467-104.840534S153.6 653.346133 153.6 554.666667s35.2768-183.995733 104.840533-253.559467S413.0304 196.266667 511.146667 196.266667h44.987733l-56.200533-56.200534a17.0496 17.0496 0 1 1 24.132266-24.132266l85.333334 85.333333a16.9472 16.9472 0 0 1 5.000533 12.014933v0.1024a16.861867 16.861867 0 0 1-5.000533 12.014934l-85.333334 85.333333a17.0496 17.0496 0 1 1-24.132266-24.132267l56.200533-56.200533H511.146667c-88.7296 0-165.649067 31.914667-228.573867 94.839467S187.733333 465.373867 187.733333 554.666667s31.914667 166.485333 94.839467 229.4272C345.514667 847.035733 422.7072 878.933333 512 878.933333s166.485333-31.8976 229.4272-94.839466C804.369067 721.152 836.266667 643.959467 836.266667 554.666667s-31.8976-166.485333-94.839467-229.4272a343.995733 343.995733 0 0 0-65.041067-51.217067 17.066667 17.066667 0 1 1 17.664-29.201067 378.88 378.88 0 0 1 71.492267 56.285867C835.140267 370.670933 870.4 455.9872 870.4 554.666667s-35.259733 183.978667-104.840533 253.559466S610.679467 913.066667 512 913.066667z" /></svg>